<?xml version="1.0" encoding="UTF-8"?>
<svg width="26px" height="20px" viewBox="0 0 26 20" version="1.1" xmlns="http://www.w3.org/2000/svg" xmlns:xlink="http://www.w3.org/1999/xlink">
    <!-- Generator: Sketch 46.2 (44496) - http://www.bohemiancoding.com/sketch -->
    <title>Group 22</title>
    <desc>Created with Sketch.</desc>
    <defs>
        <rect id="path-1" x="0" y="0" width="24" height="17.1399994" rx="2"></rect>
        <filter x="-6.2%" y="-8.8%" width="112.5%" height="117.5%" filterUnits="objectBoundingBox" id="filter-3">
            <feOffset dx="0" dy="0" in="SourceAlpha" result="shadowOffsetOuter1"></feOffset>
            <feGaussianBlur stdDeviation="0.5" in="shadowOffsetOuter1" result="shadowBlurOuter1"></feGaussianBlur>
            <feColorMatrix values="0 0 0 0 0   0 0 0 0 0   0 0 0 0 0  0 0 0 0.15 0" type="matrix" in="shadowBlurOuter1"></feColorMatrix>
        </filter>
    </defs>
    <g id="Country-code" stroke="none" stroke-width="1" fill="none" fill-rule="evenodd">
        <g id="Artboard" transform="translate(-89.000000, -502.000000)">
            <g id="Group-22" transform="translate(90.000000, 500.000000)">
                <rect id="Rectangle-6" x="0" y="0" width="24" height="24"></rect>
                <g id="Group" transform="translate(0.000000, 3.000000)">
                    <mask id="mask-2" fill="white">
                        <use xlink:href="#path-1"></use>
                    </mask>
                    <g id="Mask">
                        <use fill="black" fill-opacity="1" filter="url(#filter-3)" xlink:href="#path-1"></use>
                        <use fill="#D8D8D8" fill-rule="evenodd" xlink:href="#path-1"></use>
                    </g>
                    <g mask="url(#mask-2)">
                        <g transform="translate(-1.000000, -1.000000)">
                            <polygon id="Fill-2592" fill="#FFFFFE" points="0.0948648649 15.2465405 25.7547568 15.2465405 25.7547568 0.27827027 0.0948648649 0.27827027"></polygon>
                            <polygon id="Fill-2593" fill="#FFA44A" points="0.0948648649 6.09999847 25.7547568 6.09999847 25.7547568 0.0999984741 0.0948648649 0.0999984741"></polygon>
                            <polygon id="Fill-2594" fill="#1A9F0B" points="0.0948648649 18.5 25.7547568 18.5 25.7547568 12.5 0.0948648649 12.5"></polygon>
                            <g id="Group-31" stroke-width="1" fill="none" transform="translate(9.500000, 6.000000)">
                                <path d="M3.41063964,0.860495495 L3.34423423,2.17712613 L3.41555856,2.92644144 L3.48196396,2.17712613 L3.41555856,0.860495495 C3.48524324,0.860495495 3.55164865,0.863774775 3.61805405,0.870333333 C3.61805405,0.874432432 3.61477477,0.874432432 3.61477477,0.877711712 C3.61477477,0.940018018 3.66314414,0.992486486 3.72217117,0.992486486 C3.77791892,0.992486486 3.82382883,0.947396396 3.82874775,0.894927928 C3.89515315,0.908864865 3.95745946,0.919522523 4.02222523,0.940018018 L3.61805405,2.19434234 L3.48934234,2.9370991 L3.75004505,2.22631532 L4.02878378,0.940018018 C4.09190991,0.961333333 4.15421622,0.97854955 4.21734234,1.00314414 C4.21406306,1.0138018 4.20832432,1.02773874 4.20832432,1.04167568 C4.20832432,1.1007027 4.25751351,1.14907207 4.31818018,1.14907207 C4.35999099,1.14907207 4.4018018,1.1211982 4.41737838,1.08348649 C4.47722523,1.11136036 4.53461261,1.14251351 4.59363964,1.17694595 L3.87793694,2.27796396 L3.56066667,2.96825225 L3.99763063,2.35174775 L4.59855856,1.18104505 C4.65266667,1.2121982 4.70841441,1.24663063 4.76416216,1.28188288 C4.74858559,1.30237838 4.73956757,1.32369369 4.73956757,1.35156757 C4.73956757,1.41059459 4.78875676,1.45978378 4.84942342,1.45978378 C4.88467568,1.45978378 4.91582883,1.44584685 4.93468468,1.41387387 C4.98715315,1.45978378 5.03634234,1.50487387 5.08143243,1.54996396 L4.10584685,2.43127027 L3.62297297,3.01334234 L4.20340541,2.53292793 L5.08635135,1.55324324 C5.13226126,1.60243243 5.17735135,1.64752252 5.21916216,1.69999099 C5.19292793,1.72048649 5.18063063,1.75245946 5.18063063,1.78361261 C5.18063063,1.84263964 5.22981982,1.89182883 5.28720721,1.89182883 C5.31344144,1.89182883 5.3322973,1.88445045 5.35115315,1.87051351 C5.39132432,1.92626126 5.42657658,1.98200901 5.45772973,2.03775676 L4.28702703,2.63704505 L3.67052252,3.07646847 L4.35507207,2.76247748 L5.46100901,2.04103604 C5.4979009,2.10416216 5.52741441,2.17056757 5.55692793,2.22631532 C5.52003604,2.24353153 5.49052252,2.28534234 5.49052252,2.33043243 C5.49052252,2.38945946 5.53971171,2.43864865 5.5970991,2.43864865 C5.61431532,2.43864865 5.62661261,2.43536937 5.63890991,2.42799099 C5.65940541,2.49111712 5.67908108,2.55014414 5.69465766,2.61245045 L4.40754054,2.88463063 L3.70167568,3.14615315 L4.44361261,3.02072072 L5.69793694,2.61982883 C5.71351351,2.67557658 5.72909009,2.74526126 5.74138739,2.80756757 C5.68727928,2.81494595 5.64792793,2.85675676 5.64792793,2.91578378 C5.64792793,2.97481081 5.69793694,3.024 5.75696396,3.024 C5.76106306,3.024 5.76434234,3.024 5.76762162,3.024 C5.775,3.08630631 5.775,3.15599099 5.775,3.21911712 L4.46082883,3.15599099 L3.70823423,3.2223964 L4.46082883,3.29536036 L5.775,3.22567568 C5.775,3.29536036 5.775,3.36176577 5.76762162,3.42489189 C5.76434234,3.42489189 5.76106306,3.42489189 5.75696396,3.42489189 C5.69793694,3.42489189 5.64792793,3.47654054 5.64792793,3.53228829 C5.64792793,3.58803604 5.68727928,3.62984685 5.73974775,3.6405045 C5.72745045,3.70690991 5.71351351,3.76921622 5.69793694,3.83234234 L5.25031532,3.68969369 L4.44361261,3.42817117 L3.70167568,3.30273874 L3.70495495,3.30273874 L3.70167568,3.30273874 L4.40754054,3.56426126 L5.69465766,3.8389009 C5.67908108,3.90202703 5.65940541,3.96843243 5.63563063,4.02418018 C5.63153153,4.02418018 5.62497297,4.02008108 5.62169369,4.02008108 C5.61103604,4.02008108 5.60365766,4.02008108 5.5970991,4.02008108 C5.53643243,4.02008108 5.48724324,4.06599099 5.48724324,4.1282973 C5.48724324,4.14551351 5.49052252,4.15617117 5.4979009,4.17010811 C5.50281982,4.18732432 5.51347748,4.20126126 5.52741441,4.21191892 C5.53069369,4.21191892 5.53233333,4.2151982 5.53643243,4.2151982 C5.53971171,4.2192973 5.54299099,4.22257658 5.54627027,4.22257658 C5.54872973,4.22257658 5.55200901,4.22585586 5.55364865,4.22913514 C5.52577477,4.28898198 5.49462162,4.34800901 5.46100901,4.40375676 L4.35671171,3.68969369 L4.35507207,3.68969369 L3.67052252,3.3757027 L3.6738018,3.3757027 L4.03288288,3.62656757 L4.28702703,3.80774775 L5.45772973,4.40703604 C5.42247748,4.46606306 5.38804505,4.52590991 5.34951351,4.57755856 C5.3322973,4.56772072 5.30934234,4.56034234 5.28720721,4.56034234 C5.22572072,4.56034234 5.17899099,4.60543243 5.17899099,4.66527928 C5.17899099,4.69971171 5.19292793,4.73086486 5.21916216,4.7489009 C5.17571171,4.79727027 5.13226126,4.84645946 5.08635135,4.89154955 L4.20340541,3.91596396 L3.62461261,3.43472973 L4.10584685,4.0168018 L5.08143243,4.89810811 C5.03634234,4.9472973 4.99043243,4.98582883 4.94042342,5.02763964 C4.91910811,5.0096036 4.89697297,5.00304505 4.87237838,5.00304505 C4.81335135,5.00304505 4.76416216,5.05551351 4.76416216,5.11126126 C4.76416216,5.13175676 4.76744144,5.14569369 4.77318018,5.15963063 C4.71579279,5.19488288 4.65594595,5.23259459 4.59855856,5.27112613 L3.99763063,4.10042342 L3.56066667,3.48063964 L3.87547748,4.16682883 L4.592,5.27440541 C4.53461261,5.30637838 4.47722523,5.33753153 4.41737838,5.36540541 C4.4018018,5.32359459 4.36327027,5.299 4.31981982,5.299 C4.25915315,5.299 4.20996396,5.35146847 4.20996396,5.40721622 C4.20996396,5.42115315 4.21406306,5.43509009 4.21734234,5.44902703 C4.15421622,5.46952252 4.09354955,5.49083784 4.02878378,5.50477477 L3.75004505,4.2151982 L3.48934234,3.51507207 L3.48934234,3.51179279 L3.61805405,4.25372973 L4.02222523,5.50805405 C3.95745946,5.52527027 3.89351351,5.54330631 3.82874775,5.54986486 C3.82054955,5.5014955 3.77463964,5.45968468 3.72217117,5.45968468 C3.65986486,5.45968468 3.61477477,5.50805405 3.61477477,5.5638018 C3.61477477,5.57118018 3.61477477,5.57445946 3.61477477,5.57773874 C3.54836937,5.58511712 3.48196396,5.5883964 3.41555856,5.5883964 L3.48196396,4.27504505 L3.41227928,3.52245045 L3.34423423,4.27504505 L3.41063964,5.5883964 C3.34095495,5.5883964 3.27618919,5.58511712 3.20896396,5.57773874 C3.20896396,5.57445946 3.20896396,5.57118018 3.20896396,5.5638018 C3.20896396,5.50805405 3.15977477,5.45968468 3.09910811,5.45968468 C3.04663964,5.45968468 3.00154955,5.5014955 2.99253153,5.54986486 C2.92776577,5.53920721 2.86545946,5.52527027 2.80479279,5.50805405 L3.20896396,4.25372973 L3.3343964,3.51507207 L3.07287387,4.2151982 L2.79741441,5.50477477 C2.73510811,5.49083784 2.67198198,5.46952252 2.60721622,5.44902703 C2.61295495,5.43509009 2.61623423,5.42115315 2.61623423,5.40721622 C2.61623423,5.35146847 2.56786486,5.299 2.50965766,5.299 C2.46456757,5.299 2.42603604,5.32687387 2.40718018,5.36540541 C2.34979279,5.33753153 2.29076577,5.30637838 2.23337838,5.27440541 L2.94908108,4.16682883 L3.26225225,3.48063964 L2.82692793,4.09714414 L2.22763964,5.27112613 C2.17025225,5.23259459 2.11286486,5.19816216 2.05875676,5.15963063 C2.07105405,5.14569369 2.08007207,5.1251982 2.08007207,5.1006036 C2.08007207,5.03747748 2.03088288,4.98910811 1.9734955,4.98910811 C1.9366036,4.98910811 1.90709009,5.00632432 1.88987387,5.03091892 C1.83740541,4.98582883 1.78903604,4.9472973 1.74312613,4.89810811 L2.72281081,4.0168018 L3.20322523,3.43472973 L2.62361261,3.91596396 L1.73984685,4.89154955 C1.69147748,4.84645946 1.64802703,4.79399099 1.60375676,4.7489009 C1.62835135,4.72758559 1.64556757,4.69643243 1.64556757,4.66118018 C1.64556757,4.60215315 1.5971982,4.55706306 1.53817117,4.55706306 C1.51357658,4.55706306 1.49062162,4.56362162 1.47340541,4.57427928 C1.43487387,4.52181081 1.40044144,4.46606306 1.36682883,4.40703604 L2.54163063,3.80446847 L3.15321622,3.3757027 L2.46784685,3.68969369 L1.36354955,4.40375676 C1.33075676,4.34800901 1.30452252,4.29226126 1.27500901,4.22913514 C1.31681982,4.2151982 1.34469369,4.17748649 1.34469369,4.13157658 C1.34469369,4.06927027 1.29714414,4.02008108 1.23483784,4.02008108 C1.21926126,4.02008108 1.20368468,4.02418018 1.18974775,4.03073874 C1.16843243,3.97171171 1.14793694,3.90530631 1.12826126,3.8389009 L2.41783784,3.56426126 L3.12698198,3.30273874 L2.38094595,3.42817117 L1.12662162,3.83234234 C1.10940541,3.76921622 1.09710811,3.70690991 1.08317117,3.63722523 C1.13727928,3.62984685 1.17745045,3.58803604 1.17745045,3.53228829 C1.17745045,3.47326126 1.12826126,3.42489189 1.06923423,3.42489189 C1.06595495,3.42489189 1.06021622,3.42489189 1.05693694,3.42489189 C1.05365766,3.36176577 1.04873874,3.29536036 1.04873874,3.22567568 L2.36372973,3.29536036 L3.11468468,3.2223964 L2.36372973,3.15599099 L1.04873874,3.21911712 C1.04873874,3.15599099 1.05365766,3.08630631 1.05693694,3.024 C1.06431532,3.024 1.06923423,3.024 1.07661261,3.024 C1.13563964,3.024 1.18400901,2.97890991 1.18400901,2.91578378 C1.18400901,2.85675676 1.14055856,2.81494595 1.08317117,2.80756757 C1.09710811,2.74526126 1.10940541,2.67557658 1.12662162,2.61982883 L2.38094595,3.02072072 L3.12698198,3.14615315 L2.41783784,2.88463063 L1.12826126,2.60917117 C1.14793694,2.54276577 1.16843243,2.48045946 1.18974775,2.42143243 C1.19958559,2.42471171 1.21762162,2.42799099 1.22991892,2.42799099 C1.29058559,2.42799099 1.33731532,2.37962162 1.33731532,2.31977477 C1.33731532,2.27468468 1.30944144,2.23615315 1.27336937,2.22221622 C1.30124324,2.15990991 1.33075676,2.10088288 1.36354955,2.04103604 L2.46784685,2.76247748 L3.1564955,3.07646847 L2.54163063,2.63704505 L1.36682883,2.03775676 C1.40044144,1.98200901 1.43651351,1.92626126 1.47504505,1.86723423 C1.49062162,1.88445045 1.51685586,1.89182883 1.53981081,1.89182883 C1.5971982,1.89182883 1.64802703,1.84263964 1.64802703,1.78361261 C1.64802703,1.75245946 1.62999099,1.72048649 1.60785586,1.69671171 C1.64802703,1.64752252 1.69147748,1.60243243 1.73820721,1.55324324 L2.62115315,2.53292793 L3.20322523,3.01334234 L2.72281081,2.43127027 L1.74312613,1.54996396 C1.79231532,1.50487387 1.83904505,1.45978378 1.88987387,1.41797297 C1.90709009,1.44174775 1.93824324,1.45978378 1.9734955,1.45978378 C2.03416216,1.45978378 2.08335135,1.41059459 2.08335135,1.34828829 C2.08335135,1.32369369 2.07269369,1.30237838 2.0603964,1.28188288 C2.11614414,1.25072973 2.17025225,1.2121982 2.22763964,1.18104505 L2.82692793,2.35174775 L3.26225225,2.96497297 L2.94908108,2.27796396 L2.23337838,1.17694595 C2.29076577,1.14251351 2.34815315,1.11136036 2.40554054,1.08348649 C2.42275676,1.1252973 2.46128829,1.15317117 2.50637838,1.15317117 C2.56786486,1.15317117 2.61459459,1.10398198 2.61459459,1.04823423 C2.61459459,1.03101802 2.61131532,1.0138018 2.60721622,1.00314414 C2.6687027,0.97854955 2.73510811,0.961333333 2.79741441,0.940018018 L3.07615315,2.22631532 L3.33767568,2.9370991 L3.2106036,2.19434234 L2.80643243,0.940018018 C2.86873874,0.919522523 2.93186486,0.908864865 2.99745045,0.894927928 C3.00482883,0.947396396 3.04991892,0.989207207 3.10402703,0.989207207 C3.16469369,0.989207207 3.21388288,0.940018018 3.21388288,0.877711712 C3.21388288,0.874432432 3.21388288,0.870333333 3.21388288,0.867054054 C3.27864865,0.860495495 3.34423423,0.860495495 3.41063964,0.860495495 M3.41227928,0.605531532 C1.96611712,0.605531532 0.792135135,1.77623423 0.792135135,3.2223964 C0.792135135,4.66855856 1.96611712,5.84254054 3.41227928,5.84254054 C4.85844144,5.84254054 6.03242342,4.66855856 6.03242342,3.2223964 C6.03078378,1.77623423 4.85844144,0.605531532 3.41227928,0.605531532" id="Fill-2595" fill="#27245C"></path>
                                <path d="M3.41555856,2.83216216 C3.63199099,2.83216216 3.80579279,3.01006306 3.80579279,3.2223964 C3.80579279,3.43882883 3.63199099,3.61590991 3.41555856,3.61590991 C3.19666667,3.61590991 3.02204505,3.43882883 3.02204505,3.2223964 C3.02204505,3.01006306 3.19666667,2.83216216 3.41555856,2.83216216" id="Fill-2596" fill="#FFFFFE"></path>
                                <path d="M3.44752663,2.59999847 C3.79723389,2.59999847 4.08461708,2.87872555 4.08461708,3.23189526 C4.08461708,3.59198986 3.79723389,3.87937305 3.44752663,3.87937305 C3.09089447,3.87937305 2.80004883,3.59198986 2.80004883,3.23189526 C2.80004883,2.87872555 3.09089447,2.59999847 3.44752663,2.59999847" id="Fill-2597" fill="#27245C"></path>
                            </g>
                        </g>
                    </g>
                </g>
            </g>
        </g>
    </g>
</svg>