<svg xmlns="http://www.w3.org/2000/svg" width="74" height="52" viewBox="0 0 74 52">
    <path d="M56.988 20.865c1.718 0 3.161.637 4.074 1.974h.042v-1.655h2.207V32.94h-2.207v-1.825h-.042c-.828 1.4-2.314 2.122-3.99 2.122-3.437 0-6.238-2.589-6.238-5.984 0-3.756 2.695-6.388 6.154-6.388zm-35.088 0c3.246 0 6.302 2.547 6.26 6.282-.043 3.202-2.777 6.205-6.651 6.086-3.285-.1-6.077-2.923-6.039-6.209.042-3.545 2.85-6.159 6.43-6.159zm17.783 0c1.953 0 3.544 1.359 3.608 3.438h-2.207c-.106-.848-.594-1.421-1.507-1.421-.849 0-1.379.573-1.379 1.251 0 .998 1.02 1.295 2.186 1.656 1.655.509 3.183 1.506 3.183 3.692 0 2.27-1.656 3.756-3.947 3.756-2.122 0-4.16-1.443-4.16-4.16h2.208c.106 1.423.827 2.144 1.994 2.144 1.019 0 1.698-.658 1.698-1.613 0-.806-.615-1.336-1.995-1.782-2.886-.913-3.374-2.165-3.374-3.502 0-2.08 1.761-3.459 3.692-3.459zM3 17.237c1.219 0 2.207.988 2.207 2.207v2.992h.043c.7-1.04 1.825-1.57 3.289-1.57 2.801 0 4.902 1.782 4.902 5.008v7.066h-2.207v-6.387c0-2.525-.976-3.671-2.928-3.671-1.932 0-3.099 1.4-3.099 3.692v6.366H3V17.237zm29.871 0v3.947h1.932V23.2H32.87v9.74c-1.218 0-2.207-.988-2.207-2.207V23.2h-.911v-2.016h.911v-3.947h2.207zm15.33 0v3.947h1.932V23.2h-1.931v9.74c-1.219 0-2.207-.988-2.207-2.207V23.2h-.912v-2.016h.912v-3.947h2.207zm23.047 3.629v2.27c-1.91.064-2.886 1.23-2.886 3.205v4.392c0 1.219-.988 2.207-2.207 2.207V21.184h2.059v1.06h.042c.53-.784 1.443-1.293 2.992-1.378zm-49.454 2.016c-2.531 0-4.672 2.455-3.989 5.191.464 1.855 2.155 3.199 4.067 3.147 2.257-.063 4.08-1.866 4.08-4.2 0-2.293-1.846-4.138-4.158-4.138zm35.257 0c-2.33 0-4.21 2.104-3.994 4.59.179 2.05 1.854 3.707 3.91 3.748 2.332.047 4.18-1.882 4.18-4.137 0-2.292-1.656-4.201-4.096-4.201z"/>
</svg>
