<?xml version="1.0" encoding="UTF-8" standalone="no"?>
<svg width="158px" height="150px" viewBox="0 0 158 150" version="1.1" xmlns="http://www.w3.org/2000/svg" xmlns:xlink="http://www.w3.org/1999/xlink">
    <!-- Generator: Sketch 3.8.1 (29687) - http://www.bohemiancoding.com/sketch -->
    <title>delivery</title>
    <desc>Created with Sketch.</desc>
    <defs>
        <polygon id="path-1" points="1.86984895e-14 0.123421053 1.86984895e-14 148.684211 157.596053 148.684211 157.596053 0.123026316 1.86984895e-14 0.123026316 -6.57894737e-05 148.683947 148.561118 148.683947 148.561118 0.123421053"></polygon>
        <polygon id="path-3" points="0 149.219079 157.596053 149.219079 157.596053 0.657894737 0 0.657894737"></polygon>
    </defs>
    <g id="Page-1" stroke="none" stroke-width="1" fill="none" fill-rule="evenodd">
        <g id="delivery">
            <g id="Group-3" transform="translate(0.000000, 0.534868)">
                <mask id="mask-2" fill="white">
                    <use xlink:href="#path-1"></use>
                </mask>
                <g id="Clip-2"></g>
            </g>
            <path d="M148.561118,74.9385526 C148.561118,115.962895 115.304539,149.218816 74.2808553,149.218816 C33.2565132,149.218816 -6.57894737e-05,115.962895 -6.57894737e-05,74.9385526 C-6.57894737e-05,33.9142105 33.2565132,0.658289474 74.2808553,0.658289474 C115.304539,0.658289474 148.561118,33.9142105 148.561118,74.9385526" id="Fill-1" fill="#FF6345"></path>
            <polygon id="Fill-4" fill="#DDBB6F" points="60.4407237 125.561842 154.519671 125.561842 146.624934 32.0335526 146.624934 16.3513158 68.3354605 16.3513158 68.3354605 30.1671053"></polygon>
            <polygon id="Fill-6" fill="#525174" points="45.9670395 76.8776316 86.0986184 76.8776316 78.3025658 131.482895 52.9571711 131.482895"></polygon>
            <mask id="mask-4" fill="white">
                <use xlink:href="#path-3"></use>
            </mask>
            <g id="Clip-9"></g>
            <polygon id="Fill-8" fill="#90ABB2" mask="url(#mask-4)" points="42.2546053 82.0269737 89.6973684 82.0269737 89.6973684 72.9611842 42.2546053 72.9611842"></polygon>
            <polygon id="Fill-10" fill="#E2C88F" mask="url(#mask-4)" points="46.5144737 97.2843421 84.9526316 97.2725 82.9322368 110.430395 48.2394737 110.430395"></polygon>
            <polygon id="Fill-11" fill="#AF7948" mask="url(#mask-4)" points="154.519671 125.615461 157.595987 115.609539 149.239408 31.5095395 149.605197 16.6819079 147.958487 19.0569079 146.624934 16.3509868 146.624934 32.1404605"></polygon>
            <polygon id="Fill-12" fill="#AF7948" mask="url(#mask-4)" points="91.6769737 39.9151316 127.906579 39.9151316 127.906579 16.2381579 91.6769737 16.2381579"></polygon>
            <polygon id="Fill-13" fill="#FCE9BB" mask="url(#mask-4)" points="90.3131579 37.5046053 125.996711 37.5046053 125.996711 13.8276316 90.3131579 13.8276316"></polygon>
            <path d="M52.9570395,131.482895 L78.3024342,131.482895 L79.1925658,125.668421 L128.715592,125.588816 C128.715592,125.588816 124.501118,130.293421 116.954408,135.879605 L52.9570395,131.482895 Z" id="Fill-14" fill="#CB1F2D" mask="url(#mask-4)"></path>
            <polygon id="Fill-15" fill="#525174" mask="url(#mask-4)" points="47.9856579 72.9642105 52.0159211 72.9392105 51.0777632 64.0451316 50.7231579 60.5398684 37.5698684 62.53 37.9435526 65.6681579 47.16 64.4023684"></polygon>
            <polygon id="Fill-16" fill="#ABC8CE" mask="url(#mask-4)" points="69.3230263 82.0467105 89.6973684 82.0467105 89.6973684 72.9532895 69.3230263 72.9532895"></polygon>
            <polygon id="Fill-17" fill="#3A3A56" mask="url(#mask-4)" points="69.3045395 82.1407895 85.4407237 82.1407895 83.1565132 97.2723684 69.2190132 97.2723684"></polygon>
            <polyline id="Fill-18" fill="#FCE9BB" mask="url(#mask-4)" points="69.0282895 97.2783553 84.8907895 97.2724342 83.3763158 110.430329 68.9934211 110.430329"></polyline>
            <polygon id="Fill-19" fill="#3A3A56" mask="url(#mask-4)" points="69.7644079 110.494671 81.2321711 110.471645 78.3025658 131.482829 69.65125 131.482829"></polygon>
            <path d="M44.8482895,52.3253947 C43.0607895,52.8332895 41.7035526,54.0260526 40.7607895,55.8767105 C40.3292105,53.9839474 39.1851316,52.5931579 37.2094737,51.7892105 C39.1542105,50.9793421 40.5792105,49.8352632 41.2969737,48.2378947 C41.8213158,49.9102632 42.8976316,51.3234211 44.8482895,52.3253947" id="Fill-20" fill="#FF8C7D" mask="url(#mask-4)"></path>
            <path d="M59.7295395,40.9248684 C57.6683553,41.5103947 56.1032237,42.8860526 55.0163816,45.0196053 C54.5183553,42.8373684 53.1986184,41.2340789 50.9209868,40.3064474 C53.16375,39.3722368 54.8065132,38.0531579 55.6341447,36.2117105 C56.2394079,38.14 57.4801974,39.7696053 59.7295395,40.9248684" id="Fill-21" fill="#FFB9B6" mask="url(#mask-4)"></path>
        </g>
    </g>
</svg>