<?xml version="1.0" encoding="UTF-8" standalone="no"?>
<svg width="155px" height="150px" viewBox="0 0 155 150" version="1.1" xmlns="http://www.w3.org/2000/svg" xmlns:xlink="http://www.w3.org/1999/xlink">
    <!-- Generator: Sketch 3.8.1 (29687) - http://www.bohemiancoding.com/sketch -->
    <title>real time notifications</title>
    <desc>Created with Sketch.</desc>
    <defs>
        <polygon id="path-1" points="1.8698503e-14 0.485 1.8698503e-14 149.342105 154.186842 149.342105 154.186842 0.484868421 1.8698503e-14 0.484868421 -6.57894737e-05 149.045526 148.561118 149.045526 148.561118 0.485 1.8698503e-14 0.485"></polygon>
        <polygon id="path-3" points="0 149.515132 154.186842 149.515132 154.186842 0.657894737 0 0.657894737"></polygon>
    </defs>
    <g id="Page-1" stroke="none" stroke-width="1" fill="none" fill-rule="evenodd">
        <g id="real-time-notifications" transform="translate(0.631579, 0.000000)">
            <g id="Group-3" transform="translate(0.000000, 0.173026)">
                <mask id="mask-2" fill="white">
                    <use xlink:href="#path-1"></use>
                </mask>
                <g id="Clip-2"></g>
            </g>
            <path d="M148.561118,74.9382895 C148.561118,115.962632 115.304539,149.218553 74.2808553,149.218553 C33.2565132,149.218553 -6.57894737e-05,115.962632 -6.57894737e-05,74.9382895 C-6.57894737e-05,33.9139474 33.2565132,0.658026316 74.2808553,0.658026316 C115.304539,0.658026316 148.561118,33.9139474 148.561118,74.9382895" id="Fill-1" fill="#5DD39E"></path>
            <path d="M132.794671,104.972632 C132.794671,108.289079 130.105855,110.977895 126.789408,110.977895 C123.472303,110.977895 120.783487,108.289079 120.783487,104.972632 C120.783487,101.656184 123.472303,98.9673684 126.789408,98.9673684 C130.105855,98.9673684 132.794671,101.656184 132.794671,104.972632" id="Fill-4" fill="#FFD79C"></path>
            <path d="M55.0531579,105.021776 L125.107763,107.163224 L93.7347368,134.424408 L87.8610526,147.901382 C87.8610526,147.901382 70.8860526,153.608618 45.7143421,143.555329 L55.0531579,105.021776 Z" id="Fill-6" fill="#FFD79C"></path>
            <path d="M123.511118,116.55 L76.0848026,116.336842 C75.2828289,116.336842 73.5130921,115.563158 71.5038816,114.271053 L68.2315132,112.394737 L72.5591447,13.9085526 C72.5591447,13.1065789 73.2091447,12.4559211 74.0111184,12.4559211 L120.184803,12.2289474 L123.879539,14.2046053 C125.003224,14.8046053 124.963092,15.0348684 124.963092,15.8368421 L124.95125,114.953289 C124.95125,115.755263 124.313092,116.55 123.511118,116.55" id="Fill-8" fill="#758C8E"></path>
            <path d="M119.505658,112.813947 L69.3944737,112.813947 C68.4221053,112.813947 67.6332895,112.025789 67.6332895,111.052763 L67.6332895,13.835 C67.6332895,12.8626316 68.4221053,12.0744737 69.3944737,12.0744737 L119.505658,12.0744737 C120.478026,12.0744737 121.266842,12.8626316 121.266842,13.835 L121.266842,111.052763 C121.266842,112.025789 120.478026,112.813947 119.505658,112.813947" id="Fill-10" fill="#4E696D"></path>
            <mask id="mask-4" fill="white">
                <use xlink:href="#path-3"></use>
            </mask>
            <g id="Clip-13"></g>
            <polygon id="Fill-12" fill="#FFFFFF" mask="url(#mask-4)" points="71.2019737 99.6092105 118.175658 99.6092105 118.175658 24.9973684 71.2019737 24.9973684"></polygon>
            <polygon id="Fill-14" fill="#B7C2C4" mask="url(#mask-4)" points="90.8375 19.4953947 98.0625 19.4953947 98.0625 17.2243421 90.8375 17.2243421"></polygon>
            <path d="M98.3942105,104.989737 C98.3942105,106.252237 97.3711842,107.275263 96.1086842,107.275263 C94.8461842,107.275263 93.8231579,106.252237 93.8231579,104.989737 C93.8231579,103.727237 94.8461842,102.704211 96.1086842,102.704211 C97.3711842,102.704211 98.3942105,103.727237 98.3942105,104.989737" id="Fill-15" fill="#B7C2C4" mask="url(#mask-4)"></path>
            <path d="M133.164737,80.9878289 C133.164737,84.6180921 130.221974,87.5608553 126.591711,87.5608553 C122.962105,87.5608553 120.019342,84.6180921 120.019342,80.9878289 C120.019342,77.3575658 122.962105,74.4148026 126.591711,74.4148026 C130.221974,74.4148026 133.164737,77.3575658 133.164737,80.9878289" id="Fill-16" fill="#FFD79C" mask="url(#mask-4)"></path>
            <path d="M133.645526,93.2526316 C133.645526,96.8828947 130.702763,99.8256579 127.0725,99.8256579 C123.442895,99.8256579 120.500132,96.8828947 120.500132,93.2526316 C120.500132,89.6223684 123.442895,86.6796053 127.0725,86.6796053 C130.702763,86.6796053 133.645526,89.6223684 133.645526,93.2526316" id="Fill-17" fill="#FFD79C" mask="url(#mask-4)"></path>
            <path d="M127.386579,75.0728947 L152.431316,53.4018421 C153.891184,52.1393421 154.508289,50.1577632 154.025395,48.2893421 L154.025395,48.2893421 C153.160263,44.9472368 149.285263,43.4228947 146.375395,45.2801316 L125.029342,58.9057895 L124.628026,74.8603947" id="Fill-18" fill="#FFD79C" mask="url(#mask-4)"></path>
            <polygon id="Fill-19" fill="#CB1F2D" mask="url(#mask-4)" points="71.2026316 32.3315789 118.225658 32.3315789 118.225658 23.4394737 71.2026316 23.4394737"></polygon>
            <path d="M66.9113816,108.898224 L76.8969079,71.0942763 C77.7390132,67.9061184 75.8580921,64.6344079 72.6798026,63.7574342 L72.6798026,63.7574342 C69.4751974,62.8732237 66.1607237,64.7548026 65.2778289,67.9600658 L54.8804605,105.712697" id="Fill-20" fill="#FFD79C" mask="url(#mask-4)"></path>
            <path d="M47.8759868,71.7971053 C45.6266447,72.4359211 43.9194079,73.9365789 42.7332237,76.2655263 C42.1898026,73.8839474 40.7503289,72.1339474 38.2648026,71.1221053 C40.7115132,70.1030263 42.5042763,68.6642105 43.4075658,66.6543421 C44.0674342,68.7582895 45.4213816,70.5365789 47.8759868,71.7971053" id="Fill-21" fill="#85DDB3" mask="url(#mask-4)"></path>
            <path d="M58.5727632,58.2025 C56.7852632,58.7103947 55.4280263,59.9031579 54.4852632,61.7538158 C54.0536842,59.8610526 52.9096053,58.4702632 50.9339474,57.6663158 C52.8786842,56.8564474 54.3036842,55.7123684 55.0214474,54.115 C55.5457895,55.7873684 56.6221053,57.2005263 58.5727632,58.2025" id="Fill-22" fill="#ACF9D4" mask="url(#mask-4)"></path>
            <path d="M77.7590132,116.762895 C77.7590132,116.762895 75.64125,116.274737 76.9451974,116.274737 L114.396513,116.503026 L106.430724,123.422105 L77.7590132,116.762895 Z" id="Fill-23" fill="#EB9F44" mask="url(#mask-4)"></path>
            <polygon id="Fill-24" fill="#CADADD" mask="url(#mask-4)" points="77.6789474 57.0881579 112.616447 57.0881579 112.616447 54.9447368 77.6789474 54.9447368"></polygon>
            <path d="M81.7719737,56.1411184 C81.7719737,57.8457237 80.3903947,59.2273026 78.6857895,59.2273026 C76.9805263,59.2273026 75.5989474,57.8457237 75.5989474,56.1411184 C75.5989474,54.4365132 76.9805263,53.0549342 78.6857895,53.0549342 C80.3903947,53.0549342 81.7719737,54.4365132 81.7719737,56.1411184" id="Fill-25" fill="#5DD39E" mask="url(#mask-4)"></path>
            <path d="M93.1321711,55.8965132 C93.1321711,57.6011184 91.7505921,58.9826974 90.0459868,58.9826974 C88.3407237,58.9826974 86.9591447,57.6011184 86.9591447,55.8965132 C86.9591447,54.1919079 88.3407237,52.8103289 90.0459868,52.8103289 C91.7505921,52.8103289 93.1321711,54.1919079 93.1321711,55.8965132" id="Fill-26" fill="#5DD39E" mask="url(#mask-4)"></path>
            <path d="M103.841513,55.8696053 C103.841513,57.5742105 102.459934,58.9557895 100.755329,58.9557895 C99.0500658,58.9557895 97.6684868,57.5742105 97.6684868,55.8696053 C97.6684868,54.165 99.0500658,52.7834211 100.755329,52.7834211 C102.459934,52.7834211 103.841513,54.165 103.841513,55.8696053" id="Fill-27" fill="#CADADD" mask="url(#mask-4)"></path>
            <path d="M114.081053,55.8696053 C114.081053,57.5742105 112.699474,58.9557895 110.994868,58.9557895 C109.289605,58.9557895 107.908026,57.5742105 107.908026,55.8696053 C107.908026,54.165 109.289605,52.7834211 110.994868,52.7834211 C112.699474,52.7834211 114.081053,54.165 114.081053,55.8696053" id="Fill-28" fill="#CADADD" mask="url(#mask-4)"></path>
            <polygon id="Fill-29" fill="#5DD39E" mask="url(#mask-4)" points="77.6782895 57.0881579 91.7157895 57.0881579 91.7157895 54.9447368 77.6782895 54.9447368"></polygon>
        </g>
    </g>
</svg>