<?xml version="1.0" encoding="utf-8"?>
<!-- Generator: Adobe Illustrator 23.0.2, SVG Export Plug-In . SVG Version: 6.00 Build 0)  -->
<svg version="1.1" id="Layer_1" xmlns="http://www.w3.org/2000/svg" xmlns:xlink="http://www.w3.org/1999/xlink" x="0px" y="0px"
	 viewBox="0 0 1000 1000" style="enable-background:new 0 0 1000 1000;" xml:space="preserve">
<style type="text/css">
	.st0{fill:#E23744;}
	.st1{fill:#FFFFFF;}
</style>
<g>
	<path id="Rectangle-Copy-10" class="st0" d="M24.66,0h950.68C988.96,0,1000,11.04,1000,24.66v950.67
		c0,13.62-11.04,24.66-24.66,24.66H24.66C11.04,1000,0,988.96,0,975.34V24.66C0,11.04,11.04,0,24.66,0z"/>
	<g id="Group" transform="translate(31.000000, 221.000000)">
		<path id="zomato-copy-10" class="st1" d="M164.21,229.86l-0.8,25.37l-66.15,71.92c27.63,0,45.17-0.28,55.26-0.84
			c-2.92,13.66-5.31,24.81-7.7,41.53c-13.28-1.11-34.01-1.39-54.73-1.39c-23.11,0-43.31,0.28-59.52,1.39l0.53-25.64l66.16-71.64
			c-28.96,0-39.59,0.28-51.55,0.56c2.66-12.82,4.52-27.04,6.38-41.26c20.99,0.84,29.23,1.11,56.59,1.11
			C133.92,230.98,148.27,230.7,164.21,229.86z M211.24,309.41c0,17.01,5.58,25.65,15.14,25.65c12.76,0,22.85-20.62,22.85-45.71
			c0-17.28-5.58-25.64-14.88-25.64C221.6,263.7,211.24,284.04,211.24,309.41z M298.12,287.3c0,46.27-32.68,84.74-75.99,84.74
			c-38.79,0-58.72-26.48-58.72-61.04c0-45.99,32.95-84.46,75.99-84.46C278.72,226.53,298.12,253.01,298.12,287.3z M818.78,309.41
			c0,17.01,5.58,25.65,15.14,25.65c12.76,0,22.85-20.62,22.85-45.71c0-17.28-5.58-25.64-14.88-25.64
			C829.15,263.7,818.78,284.04,818.78,309.41z M907.44,286.32c0,46.88-33.11,85.85-76.99,85.85c-39.3,0-59.49-26.83-59.49-61.85
			c0-46.59,33.38-85.57,76.99-85.57C887.78,224.76,907.44,251.59,907.44,286.32z M521.56,271.4c3.46-23.7,1.59-45.16-24.71-45.16
			c-19.13,0-39.85,16.17-54.47,43.2c3.19-22.3,1.33-43.2-24.71-43.2c-19.66,0-40.92,17-55.53,45.16c3.72-18.4,2.92-39.3,1.86-43.77
			c-15.14,2.51-28.43,3.9-47.03,4.46c0.53,12.82-0.27,29.55-2.66,45.43l-6.11,41.81c-2.39,16.44-5.05,35.41-7.7,47.39h49.42
			c0.26-7.25,2.12-18.68,3.45-28.72l4.25-28.71c3.45-18.68,18.33-40.7,29.76-40.7c6.64,0,6.38,6.41,4.52,18.4l-4.78,32.33
			c-2.39,16.44-5.05,35.41-7.7,47.39h49.95c0.27-7.25,1.86-18.68,3.19-28.72l4.25-28.71c3.45-18.68,18.33-40.7,29.76-40.7
			c6.65,0,6.38,6.13,5.31,14.49l-11.93,83.62h45.58L521.56,271.4z M760.24,327.42l-5.31,32.9c-8.24,4.46-23.65,10.87-41.45,10.87
			c-30.29,0-36.4-16.16-31.62-50.45l7.7-55.19h-14.9l4.22-35.72l16.27-0.79l6.11-25.93l45.96-17.28l-5.84,43.21H773
			c-1.07,4.46-4.78,28.99-5.85,36.51h-30.82l-6.91,51.01c-1.86,13.1-0.79,17.84,8.24,17.84
			C744.3,334.39,754.13,330.49,760.24,327.42z"/>
		<path id="a-copy-7" class="st1" d="M585.92,343.07c16.72-2.05,28.23-18.18,31-34.27l0.47-4.31c-7.19-1.62-17.57-2.84-27.65-1.6
			c-9.59,1.18-17.58,5.16-21.87,10.94c-3.23,4.14-4.87,9.1-4.15,15C564.81,337.69,574.61,344.45,585.92,343.07z M571.67,368.56
			c-23.6,2.9-39.15-6.47-43.82-27.79c-2.94-13.41,1.13-28.68,8.25-37.8c9.52-11.92,25.05-19.58,43.98-21.9
			c15.24-1.87,28.08-0.95,40.09,1.33l0.5-2.06c0.34-3.29,0.68-6.58,0.2-10.53c-1.24-10.09-9.22-16.12-28.88-13.7
			c-13.28,1.63-25.91,6.43-35.72,11.89l-9.53-28.83c13.28-7.63,30.04-13.44,49.22-15.79c36.63-4.5,62.36,7.19,65.66,34.03
			c0.88,7.14,0.98,14.72,0.08,21.58c-4.71,33.2-7.72,58.18-9.04,74.94c-0.2,2.58-0.19,7.03,0.05,13.36l-45.45-0.04
			c0.96-2.63,1.83-6.16,2.6-10.61c0.51-2.93,0.87-6.63,1.11-11.1C601.33,358.7,588.14,366.54,571.67,368.56z"/>
	</g>
</g>
</svg>
