<?xml version="1.0" encoding="UTF-8" standalone="no"?>
<svg width="120px" height="120px" viewBox="0 0 120 120" version="1.1" xmlns="http://www.w3.org/2000/svg" xmlns:xlink="http://www.w3.org/1999/xlink">
    <!-- Generator: Sketch 41.2 (35397) - http://www.bohemiancoding.com/sketch -->
    <title>Artboard 2 Copy 8</title>
    <desc>Created with Sketch.</desc>
    <defs>
        <polygon id="path-1" points="31.1719531 0.296295983 0.475706191 0.296295983 0.475706191 39.0696024 31.1719531 39.0696024 31.1719531 0.296295983"></polygon>
    </defs>
    <g id="Page-1" stroke="none" stroke-width="1" fill="none" fill-rule="evenodd">
        <g id="Artboard-2-Copy-8">
            <g id="book" transform="translate(2.000000, 18.000000)">
                <g id="Group-4" transform="translate(0.397082, 69.345868)" fill="#DDDDDC">
                    <path d="M4.85301534,9.6284792 C2.19212068,9.64926578 0.0208531856,7.76659633 0.00464969678,5.42291043 C-0.011553792,3.07996691 2.13294272,1.16389048 4.79454188,1.14384628 L105.030028,0.372516018 C107.690923,0.351729447 109.861486,2.23439889 109.877689,4.57808479 C109.893893,6.92102831 107.690926,9.18052193 105.030031,9.2013085 L4.85301534,9.6284792 Z" id="Fill-2"></path>
                </g>
                <polygon id="Fill-5" fill="#FFFFFF" points="76.6757031 70.9799093 4.48986506 70.9799093 11.5348602 41.2921725 82.3116992 41.2921725"></polygon>
                <path d="M7.60480965,68.5283577 L74.6323023,68.5283577 L79.33695,43.7438641 L13.4866761,43.7438641 L7.60480965,68.5283577 Z M76.6760554,73.4316009 L4.48951281,73.4316009 C3.73640283,73.4316009 3.02415382,73.0890744 2.55636614,72.5013856 C2.08857847,71.9136969 1.91668059,71.1459891 2.08998747,70.4168068 L9.13498259,40.72907 C9.39776091,39.622338 10.3911052,38.8406209 11.5345079,38.8406209 L82.3120515,38.8406209 C83.04614,38.8406209 83.741481,39.1656359 84.2099732,39.7274075 C84.6784653,40.289179 84.8714982,41.0295688 84.7348253,41.7468432 L79.0988292,71.43458 C78.8790253,72.5931463 77.861728,73.4316009 76.6760554,73.4316009 L76.6760554,73.4316009 Z" id="Fill-7" fill="#434A54"></path>
                <path d="M92.8768671,36.9686327 L92.0054012,36.9686327 C85.3591528,36.9686327 79.9711405,31.6114892 79.9711405,25.0033183 L79.9711405,2.39726566 L104.911128,2.39726566 L104.911128,25.0033183 C104.911128,31.6114892 99.5231155,36.9686327 92.8768671,36.9686327" id="Fill-9" fill="#FFFFFF"></path>
                <g id="Group-13" transform="translate(76.393365, 0.000000)">
                    <mask id="mask-2" fill="white">
                        <use xlink:href="#path-1"></use>
                    </mask>
                    <g id="Clip-12"></g>
                    <path d="M4.92433017,4.4989358 L4.92433017,25.002898 C4.92433017,30.4419957 9.60798979,34.8668225 15.3659921,34.8668225 L16.2824086,34.8668225 C22.0396695,34.8668225 26.7233291,30.4419957 26.7233291,25.002898 L26.7233291,4.4989358 L4.92433017,4.4989358 Z M16.2824086,39.0696024 L15.3659921,39.0696024 C7.1553151,39.0696024 0.475706191,32.7598288 0.475706191,25.002898 L0.475706191,2.39754584 C0.475706191,1.23687813 1.47145653,0.296155891 2.70001818,0.296155891 L28.9476411,0.296155891 C30.1769442,0.296155891 31.1719531,1.23687813 31.1719531,2.39754584 L31.1719531,25.002898 C31.1719531,32.7598288 24.4930856,39.0696024 16.2824086,39.0696024 L16.2824086,39.0696024 Z" id="Fill-11" fill="#434A54" mask="url(#mask-2)"></path>
                </g>
                <path d="M92.0622891,32.7774416 C87.3615534,32.7774416 83.5495932,29.1816398 83.5495932,24.7458643 L83.5495932,10.3505041 C83.5495932,9.26104044 84.4861034,8.37817458 85.6408296,8.37817458 L99.1012695,8.37817458 C100.255996,8.37817458 101.191748,9.26104044 101.191748,10.3505041 L101.191748,24.7458643 C101.191748,29.1816398 97.3805457,32.7774416 92.6790523,32.7774416 L92.0622891,32.7774416 Z" id="Fill-14" fill="#FFBB4D"></path>
                <path d="M91.3926608,8.38375057 L96.6423514,8.3780316 L96.7423816,31.7998458 C96.1371614,32.1441647 94.6316317,33.0167805 91.5566685,32.7601418 L91.3926608,8.38375057 Z" id="Fill-16" fill="#FFD597"></path>
                <path d="M92.0058239,39.7187217 L92.0058239,67.7372544" id="Fill-18" fill="#FFFFFF"></path>
                <path d="M89.8923253,66.0323267 L89.8923253,39.3733933 C89.8923253,38.0453149 90.8384682,36.9687027 92.0058239,36.9687027 C93.1731796,36.9687027 94.1193224,38.0453149 94.1193224,39.3733933 L94.1193224,66.0323267 C94.1193224,67.3611056 93.1731796,68.4377177 92.0058239,68.4377177 C90.8384682,68.4377177 89.8923253,67.3611056 89.8923253,66.0323267 Z" id="Fill-20" fill="#434A54"></path>
                <path d="M99.7553185,70.5391077 L92.3975256,70.5391077 C91.5126742,70.5391077 90.7215212,69.9913454 90.4143595,69.1661996 L80.3294489,42.0204442 C79.9250662,40.9312237 80.4844388,39.7229245 81.5799356,39.3208586 C82.6705008,38.9180921 83.889285,39.4749605 84.2950767,40.5641809 L93.8699296,66.3363278 L99.7553185,66.3363278 C100.922674,66.3363278 101.868817,67.27705 101.868817,68.4377177 C101.868817,69.5983855 100.922674,70.5391077 99.7553185,70.5391077" id="Fill-22" fill="#434A54"></path>
                <path d="M17.6941585,46.8318567 L73.0805012,46.8318567 C74.4880912,46.8318567 75.544136,48.134018 75.2672677,49.5293409 L72.4873126,63.5323031 C72.2787808,64.5850994 71.3636359,65.3430008 70.3005461,65.3430008 L14.4964352,65.3430008 C13.0620742,65.3430008 12.001098,63.9946089 12.3230542,62.5817744 L15.5207775,48.5788122 C15.7546714,47.5561357 16.6557262,46.8318567 17.6941585,46.8318567" id="Fill-24" fill="#4FC6E1"></path>
                <polygon id="Fill-26" fill="#73ECFF" points="61.8577535 46.8456558 69.2035699 46.8288447 66.0474121 65.3378874 57.8984663 65.3532976"></polygon>
            </g>
        </g>
    </g>
</svg>