<?xml version="1.0" encoding="UTF-8" standalone="no"?>
<svg width="120px" height="120px" viewBox="0 0 120 120" version="1.1" xmlns="http://www.w3.org/2000/svg" xmlns:xlink="http://www.w3.org/1999/xlink">
    <!-- Generator: Sketch 41.2 (35397) - http://www.bohemiancoding.com/sketch -->
    <title>Artboard 2 Copy 3</title>
    <desc>Created with Sketch.</desc>
    <defs>
        <path d="M103.612003,0.431105475 L5.20130185,1.14994647 C2.60960839,1.16985897 0.517542473,3.04163332 0.500622815,5.34351751 L0.500622815,5.40126374 C0.518537747,7.71111294 2.61458476,9.57093979 5.19831603,9.58189166 L5.26300884,9.58189166 L103.67371,8.86305066 C106.243508,8.84512942 108.322635,7.00322381 108.374389,4.72722585 L108.374389,4.55498279 C108.322635,2.27201546 106.237536,0.443052971 103.675701,0.431105475 L103.612003,0.431105475 L103.612003,0.431105475 Z" id="path-1"></path>
        <path d="M72.3623381,0.188328703 C72.0337405,0.191557195 71.7588354,0.185100211 71.5290318,0.178643227 C70.1856477,0.138825158 70.3553157,0.0990070896 70.0685982,2.06300642 C69.8753055,3.38453583 69.6852344,3.90862771 69.489794,5.26567054 L69.3534153,7.00259926 L11.4601085,7.00044693 C8.90757122,6.9982946 6.35718163,6.98215214 3.80571819,7.00690391 C2.50421412,7.01874172 2.04675476,7.3394386 1.26284554,8.326281 C0.492896346,9.29375245 0.021476965,9.72421806 0.35544377,11.455766 C2.24219514,21.2434777 4.81084015,31.1850809 7.27424804,41.9929961 C7.9701017,45.0449973 9.08153464,45.9274518 12.2300577,45.9274518 L62.0437303,45.9274518 L61.5261354,51.7903933 L12.5028152,50.9940319 L12.2386485,50.9918796 C11.916494,50.987575 11.5513856,50.9843465 11.1744649,51.0284692 C9.78275755,51.1941985 9.05576228,50.9488331 8.04634493,52.2025641 C7.4471376,52.9461935 7.28713422,54.1332024 7.96580631,55.3621817 C8.65951228,56.6255982 9.97712408,57.4101218 11.4858809,57.4607015 C12.3771749,57.489758 13.2770597,57.483301 14.1522461,57.476844 C13.4907555,61.5286015 14.7181641,64.8657861 17.7453423,67.1924527 C21.0216533,69.7096004 25.1581168,69.9721844 28.5407388,67.8779692 C32.3571954,65.5168654 33.2173479,61.9795142 32.4538418,57.5392615 L45.0178663,57.5134336 C44.326308,61.6415987 44.8771922,65.0444294 48.1642417,67.410914 C49.9350174,68.6861684 51.8217688,69.3254098 53.7214063,69.3254098 C55.3558034,69.3254098 56.999865,68.8518976 58.5837912,67.9016448 C62.4689742,65.5728259 63.2142249,61.8848118 62.4195772,57.3746084 C63.0166368,57.3799892 63.6566503,57.4822248 64.246193,57.4650062 C66.3971111,57.4036648 66.1597906,56.0132609 66.4733543,53.9276551 C66.7214132,52.2789718 66.9469214,50.6281362 67.1735033,48.9762244 C67.2744451,48.2239858 67.3786084,47.4728233 67.4827716,46.7205846 L70.9104953,22.1592933 C71.3625854,18.9135826 71.8136016,15.6689481 72.2678394,12.4232374 C72.5158984,10.642186 72.7693266,8.86113452 73.0259763,7.05425513 L73.2085305,5.77684844 C73.4834357,5.77792461 76.3860475,5.78007694 76.6598788,5.78007694 C78.2481003,5.78545776 79.7525617,5.79083858 81.2903124,5.75855366 C81.9067013,5.74456352 82.9440387,5.73380188 83.8321112,5.4970458 C85.1840862,5.13653085 85.5964439,4.45101437 85.7714812,3.50937086 C86.140885,1.51846743 83.6055292,0.204471163 81.5394452,0.187252539 C79.9404852,0.173262407 78.4081037,0.166805423 76.9229716,0.166805423 C75.3573009,0.166805423 73.8453225,0.174338571 72.3623381,0.188328703 L72.3623381,0.188328703 Z M14.4110435,40.3970449 C12.5307352,40.3970449 11.1852034,39.5662462 10.4818328,35.6597709 L6.11127038,16.1478411 C5.74723583,13.732929 6.25087066,11.489127 10.4925712,11.5386306 L63.6974566,11.6257999 C66.142609,11.6257999 67.7920399,13.5790376 67.4559254,16.0079398 L64.7648617,36.1881674 C64.2010914,40.069891 61.1943163,40.4691479 59.1829985,40.4691479 L14.4110435,40.3970449 L14.4110435,40.3970449 Z M52.5498379,60.5170073 C52.2147972,60.1855488 52.0311692,59.760464 52.0333169,59.3192368 C52.0354646,58.4184875 52.8258169,57.654411 53.7600649,57.6511826 L53.7654341,57.6511826 C54.7039775,57.6511826 55.4771482,58.3948119 55.4900344,59.3106275 C55.5018467,60.2103006 54.7136421,61.0141951 53.801945,61.0314137 C53.7783203,61.0324899 53.7536218,61.0335661 53.7289233,61.0335661 C53.299384,61.0335661 52.8709185,60.8333996 52.5498379,60.5170073 L52.5498379,60.5170073 Z M23.627883,61.0303376 C22.7054474,61.0120428 21.9333505,60.2221384 21.9430151,59.3052466 C21.9526797,58.3765171 22.7086689,57.6511826 23.6665416,57.6511826 L23.6719108,57.6511826 C24.6061588,57.654411 25.3965111,58.4184875 25.3997326,59.3203129 C25.3997326,59.7518547 25.2107353,60.1877011 24.8778424,60.5137788 C24.5599833,60.8280187 24.1529948,61.0346422 23.7245294,61.0346422 C23.6923139,61.0346422 23.6600985,61.0324899 23.627883,61.0303376 L23.627883,61.0303376 Z" id="path-3"></path>
        <path d="M0.728069113,3.97534988 C0.728069113,6.03728014 2.39575544,7.70856285 4.45324869,7.70856285 C6.51074193,7.70856285 8.17950211,6.03728014 8.17950211,3.97534988 C8.17950211,1.91341962 6.51074193,0.242136904 4.45324869,0.242136904 C2.39575544,0.242136904 0.728069113,1.91341962 0.728069113,3.97534988 L0.728069113,3.97534988 Z" id="path-5"></path>
        <path d="M0.0504708677,3.78486885 C0.0504708677,5.84787527 1.7181572,7.51808182 3.77672429,7.51808182 C5.83421754,7.51808182 7.50297771,5.84787527 7.50297771,3.78486885 C7.50297771,1.72293859 5.83421754,0.0516558728 3.77672429,0.0516558728 C1.7181572,0.0516558728 0.0504708677,1.72293859 0.0504708677,3.78486885 L0.0504708677,3.78486885 Z" id="path-7"></path>
        <path d="M48.6313656,0.0191374196 L2.17132116,0.435612894 C0.815050821,0.447450698 -0.176111113,1.93793786 0.143895665,3.48115706 L3.63927171,20.2305738 C3.86800139,21.3314896 4.71204612,22.1074039 5.67958339,22.1074039 L46.7542789,22.1074039 C47.8109456,22.1074039 48.7033135,21.1883598 48.8386184,19.9604567 L50.7318128,2.79671675 C50.8939639,1.32237204 49.9146143,0.0191374196 48.6485472,0.0191374196 L48.6313656,0.0191374196 L48.6313656,0.0191374196 Z" id="path-9"></path>
        <path d="M0.873038626,0.0301325925 C2.04890246,6.99506611 1.75788958,14.4464258 0.0783909222,22.3573075 L7.19585711,22.3573075 C9.01495605,14.8973385 9.61523722,7.45243582 8.83025415,0.0301325925 L0.873038626,0.0301325925 L0.873038626,0.0301325925 Z" id="path-11"></path>
        <path d="M0.474640926,4.58230638 C0.474640926,7.05425513 2.43441398,9.05807253 4.85057254,9.05807253 C7.26780495,9.05807253 9.22650415,7.05425513 9.22650415,4.58230638 C9.22650415,2.11035764 7.26780495,0.106540238 4.85057254,0.106540238 C2.43441398,0.106540238 0.474640926,2.11035764 0.474640926,4.58230638 L0.474640926,4.58230638 Z" id="path-13"></path>
        <path d="M0.00255678154,4.48329929 C0.00255678154,6.95417188 1.96232984,8.95798928 4.37848839,8.95798928 C6.7957208,8.95798928 8.75549386,6.95417188 8.75549386,4.48329929 C8.75549386,2.01135055 6.7957208,0.00753314812 4.37848839,0.00753314812 C1.96232984,0.00753314812 0.00255678154,2.01135055 0.00255678154,4.48329929 L0.00255678154,4.48329929 Z" id="path-15"></path>
        <path d="M0.960439397,3.61212624 C0.960439397,5.24295942 2.28713962,6.56913146 3.91640314,6.56913146 C5.54666193,6.56913146 6.87236688,5.24295942 6.87236688,3.61212624 C6.87236688,1.98228868 5.54666193,0.656116646 3.91640314,0.656116646 C2.28713962,0.656116646 0.960439397,1.98228868 0.960439397,3.61212624 L0.960439397,3.61212624 Z M1.79248845,3.61212624 C1.79248845,2.44127165 2.74496566,1.48746323 3.91640314,1.48746323 C5.08784062,1.48746323 6.04031782,2.44127165 6.04031782,3.61212624 C6.04031782,4.78397646 5.08784062,5.73678925 3.91640314,5.73678925 C2.74496566,5.73678925 1.79248845,4.78397646 1.79248845,3.61212624 L1.79248845,3.61212624 Z" id="path-17"></path>
        <path d="M1.58746201,0.900044686 C0.595173844,1.89168684 0.595173844,3.49962066 1.58746201,4.49225843 C2.5787549,5.48390059 4.18612239,5.48390059 5.17841055,4.49225843 C6.17069872,3.49962066 6.17069872,1.89168684 5.17841055,0.900044686 C4.68176883,0.403227984 4.03285019,0.155317446 3.38194101,0.155317446 C2.73302237,0.155317446 2.08211318,0.403227984 1.58746201,0.900044686 L1.58746201,0.900044686 Z" id="path-19"></path>
        <path d="M1.29286091,1.60096444 C0.734512202,2.15851425 0.42697254,2.90125024 0.42697254,3.69078059 C0.42697254,4.48031094 0.734512202,5.22304693 1.29286091,5.78159236 C1.85120962,6.34013779 2.59268874,6.64778581 3.38194101,6.64778581 C4.17218855,6.64778581 4.91366767,6.34013779 5.47201638,5.78159236 C6.03136036,5.22304693 6.33790475,4.48031094 6.33790475,3.69078059 C6.33790475,2.90125024 6.03136036,2.15851425 5.47201638,1.60096444 C4.91366767,1.04241901 4.14929725,0.763644109 3.38293628,0.763644109 C2.61757058,0.763644109 1.85120962,1.04241901 1.29286091,1.60096444 L1.29286091,1.60096444 Z M1.88106783,5.19317819 C1.47997242,4.79194146 1.25802632,4.25828664 1.25802632,3.69078059 C1.25802632,3.12427016 1.47997242,2.58961972 1.88106783,2.18838299 C2.28216325,1.78814188 2.81563011,1.56512195 3.38194101,1.56512195 C3.95024245,1.56512195 4.48271404,1.78814188 4.88480473,2.18838299 C5.28590014,2.58961972 5.50585569,3.12427016 5.50585569,3.69078059 C5.50585569,4.25828664 5.28590014,4.79194146 4.88480473,5.19317819 C4.48271404,5.59541055 3.9333228,5.79553111 3.38293628,5.79553111 C2.83354504,5.79553111 2.28216325,5.59541055 1.88106783,5.19317819 L1.88106783,5.19317819 Z" id="path-21"></path>
    </defs>
    <g id="Page-1" stroke="none" stroke-width="1" fill="none" fill-rule="evenodd">
        <g id="Artboard-2-Copy-3">
            <g id="online-order" transform="translate(0.000000, 9.000000)">
                <rect id="Rectangle-26" x="0" y="0" width="119.925047" height="119.9673"></rect>
                <g id="Group-2" transform="translate(5.996252, 4.798692)">
                    <g id="Group-3" transform="translate(0.000000, 81.800521)">
                        <mask id="mask-2" fill="white">
                            <use xlink:href="#path-1"></use>
                        </mask>
                        <g id="Clip-2"></g>
                        <polygon id="Fill-1" fill="#DDDDDC" mask="url(#mask-2)" points="-13.0500325 23.1383169 121.92604 23.1383169 121.92604 -13.1243242 -13.0500325 -13.1243242"></polygon>
                    </g>
                    <g id="Group" transform="translate(13.908954, 14.984151)">
                        <g id="Group-6" transform="translate(0.939617, 0.710268)">
                            <mask id="mask-4" fill="white">
                                <use xlink:href="#path-3"></use>
                            </mask>
                            <g id="Clip-5"></g>
                            <polygon id="Fill-4" fill="#434A54" mask="url(#mask-4)" points="-14.3745327 83.9784591 100.428436 83.9784591 100.428436 -14.4862438 -14.3745327 -14.4862438"></polygon>
                        </g>
                        <g id="Group-21" transform="translate(19.195037, 56.670797)">
                            <mask id="mask-6" fill="white">
                                <use xlink:href="#path-5"></use>
                            </mask>
                            <g id="Clip-20"></g>
                            <polygon id="Fill-19" fill="#FFFFFF" mask="url(#mask-6)" points="-13.8934486 22.3616121 22.799946 22.3616121 22.799946 -14.4109124 -13.8934486 -14.4109124"></polygon>
                        </g>
                        <g id="Group-24" transform="translate(50.336637, 56.670797)">
                            <mask id="mask-8" fill="white">
                                <use xlink:href="#path-7"></use>
                            </mask>
                            <g id="Clip-23"></g>
                            <polygon id="Fill-22" fill="#FFFFFF" mask="url(#mask-8)" points="-14.569973 22.1711311 22.1234216 22.1711311 22.1234216 -14.6013934 -14.569973 -14.6013934"></polygon>
                        </g>
                        <g id="Group-27" transform="translate(12.751948, 15.692857)">
                            <mask id="mask-10" fill="white">
                                <use xlink:href="#path-9"></use>
                            </mask>
                            <g id="Clip-26"></g>
                            <polygon id="Fill-25" fill="#58AA1A" mask="url(#mask-10)" points="-14.5377576 36.759377 65.3705121 36.759377 65.3705121 -14.6339118 -14.5377576 -14.6339118"></polygon>
                        </g>
                        <g id="Group-30" transform="translate(46.041244, 15.776564)">
                            <mask id="mask-12" fill="white">
                                <use xlink:href="#path-11"></use>
                            </mask>
                            <g id="Clip-29"></g>
                            <polygon id="Fill-28" fill="#6FCE28" mask="url(#mask-12)" points="-14.5431268 37.0103567 23.7889603 37.0103567 23.7889603 -14.6229167 -14.5431268 -14.6229167"></polygon>
                        </g>
                        <g id="Group-33" transform="translate(49.262788, 56.670797)">
                            <mask id="mask-14" fill="white">
                                <use xlink:href="#path-13"></use>
                            </mask>
                            <g id="Clip-32"></g>
                            <polygon id="Fill-31" fill="#FFFFFF" mask="url(#mask-14)" points="-14.1468768 23.7100456 23.8469481 23.7100456 23.8469481 -14.546509 -14.1468768 -14.546509"></polygon>
                        </g>
                        <g id="Group-36" transform="translate(19.165634, 56.670797)">
                            <mask id="mask-16" fill="white">
                                <use xlink:href="#path-15"></use>
                            </mask>
                            <g id="Clip-35"></g>
                            <polygon id="Fill-34" fill="#FFFFFF" mask="url(#mask-16)" points="-14.6178871 23.6110385 23.3759378 23.6110385 23.3759378 -14.6455161 -14.6178871 -14.6455161"></polygon>
                        </g>
                    </g>
                    <g id="dots" transform="translate(42.845414, 8.435882) rotate(-270.000000) translate(-42.845414, -8.435882) translate(34.412503, 0.992457)">
                        <g transform="translate(-0.000000, 0.000000)">
                            <g id="Group-12" transform="translate(0.223937, 0.706894)">
                                <mask id="mask-18" fill="white">
                                    <use xlink:href="#path-17"></use>
                                </mask>
                                <g id="Clip-11"></g>
                            </g>
                            <g id="Group-15" transform="translate(9.181403, 8.671891)">
                                <mask id="mask-20" fill="white">
                                    <use xlink:href="#path-19"></use>
                                </mask>
                                <g id="Clip-14"></g>
                                <polygon id="Fill-13" fill="#434A54" mask="url(#mask-20)" points="-12.7076583 18.7924153 19.4745261 18.7924153 19.4745261 -13.4011078 -12.7076583 -13.4011078"></polygon>
                            </g>
                            <g id="Group-18" transform="translate(9.181403, 7.676266)">
                                <mask id="mask-22" fill="white">
                                    <use xlink:href="#path-21"></use>
                                </mask>
                                <g id="Clip-17"></g>
                                <polygon id="Fill-16" fill="#434A54" mask="url(#mask-22)" points="-13.1236828 20.2042111 19.8895553 20.2042111 19.8895553 -12.7927812 -13.1236828 -12.7927812"></polygon>
                            </g>
                        </g>
                    </g>
                </g>
            </g>
        </g>
    </g>
</svg>