<svg xmlns="http://www.w3.org/2000/svg" width="43" height="25" viewBox="0 0 43 25">
    <g fill="none" fill-rule="evenodd">
        <path stroke="#002974" stroke-linecap="round" stroke-width="1.2" d="M1 24.387h33.765M37.98 24.387h3.64"/>
        <g transform="translate(5.02 1)">
            <rect width="24.905" height="21.114" x=".509" y=".528" fill="#FFF" rx="4.069"/>
            <path fill="#00B9F5" d="M3.12 22.616c-1.485 0-2.689-1.743-2.689-3.38h24.905c0 1.637-1.203 3.38-2.687 3.38H3.119z"/>
            <path stroke="#012B72" stroke-linecap="round" stroke-linejoin="round" stroke-width="1.2" d="M21.32 22.976H4.14c-2.133 0-3.863-1.913-3.863-4.272V4.573c0-2.36 1.73-4.272 3.863-4.272h17.18c2.133 0 3.862 1.913 3.862 4.272v14.13c0 2.36-1.73 4.273-3.863 4.273z"/>
            <path stroke="#012B72" stroke-linecap="round" stroke-linejoin="round" stroke-width="1.2" d="M24.97 14.736h-3.867c-1.288 0-2.332-1.11-2.332-2.48v-.93c0-1.37 1.044-2.48 2.332-2.48h3.867v5.89z"/>
            <path fill="#00B9F5" d="M22.82 11.792c0 .558-.425 1.01-.95 1.01-.524 0-.95-.452-.95-1.01 0-.559.426-1.01.95-1.01.525 0 .95.451.95 1.01"/>
        </g>
    </g>
</svg>
