<svg xmlns="http://www.w3.org/2000/svg" xmlns:xlink="http://www.w3.org/1999/xlink" width="44" height="44" viewBox="0 0 44 44">
    <defs>
        <path id="a" d="M.804 9.367l8.683-8.8c.347-.352.83-.567 1.36-.567H17.6c1.061 0 1.93.88 1.93 1.956V8.8c0 .538-.213 1.027-.57 1.388l-8.682 8.8a1.904 1.904 0 0 1-2.72-.01L.803 12.135a1.925 1.925 0 0 1-.569-1.378c0-.538.222-1.037.57-1.389z"/>
    </defs>
    <g fill="none" fill-rule="evenodd">
        <g transform="translate(9 10)">
            <g fill-rule="nonzero">
                <use fill="#FFF" fill-rule="evenodd" xlink:href="#a"/>
                <path stroke="#012B72" d="M.449 9.016L9.13.216A2.404 2.404 0 0 1 10.847-.5H17.6c1.339 0 2.43 1.105 2.43 2.456V8.8c0 .66-.258 1.277-.714 1.74l-8.682 8.8a2.404 2.404 0 0 1-1.716.716A2.37 2.37 0 0 1 7.2 19.33L.453 12.49a2.425 2.425 0 0 1-.718-1.734c0-.656.264-1.284.714-1.74z"/>
            </g>
            <ellipse cx="15.51" cy="4.074" fill="#00B9F5" rx="1.608" ry="1.63"/>
        </g>
        <g stroke="#002974" stroke-linecap="round">
            <path d="M2 30.37h33.765M38.98 30.37h3.64"/>
        </g>
    </g>
</svg>
